<svg xmlns="http://www.w3.org/2000/svg" viewBox="0 0 34400 22400" font-family="system-ui, sans-serif">
<defs><filter id="filter-floor-shadow" x="-20%" y="-20%" width="140%" height="160%"><feDropShadow dx="0" dy="24" stdDeviation="36" floodColor="#0f172a" floodOpacity="0.3"/></filter><filter id="filter-room-shadow" x="-15%" y="-15%" width="130%" height="145%"><feDropShadow dx="0" dy="8" stdDeviation="9" floodColor="#0f172a" floodOpacity="0.22"/></filter><filter id="filter-furn-shadow" x="-40%" y="-40%" width="180%" height="180%"><feDropShadow dx="3" dy="5" stdDeviation="7" floodColor="#0f172a" floodOpacity="0.3"/></filter><radialGradient id="grad-floor" cx="50%" cy="42%" r="75%"><stop offset="0%" stop-color="#ffffff"/><stop offset="100%" stop-color="#e8ecf4"/></radialGradient><linearGradient id="grad-room-lobby" x1="0" y1="0" x2="0" y2="1"><stop offset="0%" stop-color="#e0e7ff"/><stop offset="100%" stop-color="#eef2ff"/></linearGradient><linearGradient id="grad-room-office" x1="0" y1="0" x2="0" y2="1"><stop offset="0%" stop-color="#e0f2fe"/><stop offset="100%" stop-color="#f0f9ff"/></linearGradient><linearGradient id="grad-room-meeting" x1="0" y1="0" x2="0" y2="1"><stop offset="0%" stop-color="#fae8ff"/><stop offset="100%" stop-color="#fdf4ff"/></linearGradient><linearGradient id="grad-room-server" x1="0" y1="0" x2="0" y2="1"><stop offset="0%" stop-color="#fde68a"/><stop offset="100%" stop-color="#fef3c7"/></linearGradient><linearGradient id="grad-room-sanitary" x1="0" y1="0" x2="0" y2="1"><stop offset="0%" stop-color="#d1fae5"/><stop offset="100%" stop-color="#ecfdf5"/></linearGradient><linearGradient id="grad-room-cafe" x1="0" y1="0" x2="0" y2="1"><stop offset="0%" stop-color="#fed7aa"/><stop offset="100%" stop-color="#fff7ed"/></linearGradient><linearGradient id="grad-room-corridor" x1="0" y1="0" x2="0" y2="1"><stop offset="0%" stop-color="#e2e8f0"/><stop offset="100%" stop-color="#f1f5f9"/></linearGradient><linearGradient id="grad-room-storage" x1="0" y1="0" x2="0" y2="1"><stop offset="0%" stop-color="#e7e5e4"/><stop offset="100%" stop-color="#f5f5f4"/></linearGradient></defs>
<rect x="0" y="0" width="34400" height="22400" fill="#ffffff"/>
<g id="oas-rooms"><polygon points="400,18800 2000,18800 2000,22000 32400,22000 32400,18800 34000,18800 34000,1200 33200,1200 33200,400 29200,400 29200,1200 400,1200" fill="url(#grad-floor)" filter="url(#filter-floor-shadow)"/><polygon points="400,9600 13200,9600 13200,1200 400,1200" fill="url(#grad-room-lobby)" filter="url(#filter-room-shadow)" stroke="#cbd5e1" stroke-width="1.5"/><polygon points="13200,9600 22800,9600 22800,1200 13200,1200" fill="url(#grad-room-cafe)" filter="url(#filter-room-shadow)" stroke="#cbd5e1" stroke-width="1.5"/><polygon points="22800,9600 34000,9600 34000,1200 33200,1200 33200,400 29200,400 29200,1200 22800,1200" fill="url(#grad-room-office)" filter="url(#filter-room-shadow)" stroke="#cbd5e1" stroke-width="1.5"/><polygon points="400,14400 5200,14400 5200,9600 400,9600" fill="url(#grad-room-corridor)" filter="url(#filter-room-shadow)" stroke="#cbd5e1" stroke-width="1.5"/><polygon points="5200,14400 29200,14400 29200,9600 5200,9600" fill="url(#grad-room-corridor)" filter="url(#filter-room-shadow)" stroke="#cbd5e1" stroke-width="1.5"/><polygon points="29200,14400 34000,14400 34000,9600 29200,9600" fill="url(#grad-room-corridor)" filter="url(#filter-room-shadow)" stroke="#cbd5e1" stroke-width="1.5"/><polygon points="400,18800 2000,18800 2000,22000 8800,22000 8800,14400 400,14400" fill="url(#grad-room-meeting)" filter="url(#filter-room-shadow)" stroke="#cbd5e1" stroke-width="1.5"/><polygon points="8800,22000 16400,22000 16400,14400 8800,14400" fill="url(#grad-room-lobby)" filter="url(#filter-room-shadow)" stroke="#cbd5e1" stroke-width="1.5"/><polygon points="16400,22000 22800,22000 22800,14400 16400,14400" fill="url(#grad-room-server)" filter="url(#filter-room-shadow)" stroke="#cbd5e1" stroke-width="1.5"/><polygon points="22800,22000 28400,22000 28400,16400 22800,16400" fill="url(#grad-room-sanitary)" filter="url(#filter-room-shadow)" stroke="#cbd5e1" stroke-width="1.5"/><polygon points="28400,22000 32400,22000 32400,18800 34000,18800 34000,16400 28400,16400" fill="url(#grad-room-sanitary)" filter="url(#filter-room-shadow)" stroke="#cbd5e1" stroke-width="1.5"/><polygon points="22800,16400 34000,16400 34000,14400 22800,14400" fill="url(#grad-room-corridor)" filter="url(#filter-room-shadow)" stroke="#cbd5e1" stroke-width="1.5"/></g>
<g id="oas-walls"><line x1="29200" y1="400" x2="33200" y2="400" stroke="#8496ab" stroke-width="320" stroke-linecap="butt"/><line x1="400" y1="1200" x2="13200" y2="1200" stroke="#8496ab" stroke-width="320" stroke-linecap="butt"/><line x1="13200" y1="1200" x2="22800" y2="1200" stroke="#8496ab" stroke-width="320" stroke-linecap="butt"/><line x1="22800" y1="1200" x2="29200" y2="1200" stroke="#8496ab" stroke-width="320" stroke-linecap="butt"/><line x1="33200" y1="1200" x2="34000" y2="1200" stroke="#8496ab" stroke-width="320" stroke-linecap="butt"/><line x1="400" y1="1200" x2="400" y2="9600" stroke="#8496ab" stroke-width="320" stroke-linecap="butt"/><line x1="400" y1="9600" x2="400" y2="14400" stroke="#8496ab" stroke-width="320" stroke-linecap="butt"/><line x1="400" y1="14400" x2="400" y2="18800" stroke="#8496ab" stroke-width="320" stroke-linecap="butt"/><line x1="2000" y1="18800" x2="2000" y2="22000" stroke="#8496ab" stroke-width="320" stroke-linecap="butt"/><line x1="5200" y1="9600" x2="5200" y2="14400" stroke="#8496ab" stroke-width="320" stroke-linecap="butt"/><line x1="400" y1="9600" x2="5200" y2="9600" stroke="#8496ab" stroke-width="320" stroke-linecap="butt"/><line x1="5200" y1="9600" x2="13200" y2="9600" stroke="#8496ab" stroke-width="320" stroke-linecap="butt"/><line x1="13200" y1="9600" x2="22800" y2="9600" stroke="#8496ab" stroke-width="320" stroke-linecap="butt"/><line x1="22800" y1="9600" x2="29200" y2="9600" stroke="#8496ab" stroke-width="320" stroke-linecap="butt"/><line x1="29200" y1="9600" x2="34000" y2="9600" stroke="#8496ab" stroke-width="320" stroke-linecap="butt"/><line x1="8800" y1="14400" x2="8800" y2="22000" stroke="#8496ab" stroke-width="320" stroke-linecap="butt"/><line x1="400" y1="14400" x2="5200" y2="14400" stroke="#8496ab" stroke-width="320" stroke-linecap="butt"/><line x1="5200" y1="14400" x2="8800" y2="14400" stroke="#8496ab" stroke-width="320" stroke-linecap="butt"/><line x1="8800" y1="14400" x2="16400" y2="14400" stroke="#8496ab" stroke-width="320" stroke-linecap="butt"/><line x1="16400" y1="14400" x2="22800" y2="14400" stroke="#8496ab" stroke-width="320" stroke-linecap="butt"/><line x1="22800" y1="14400" x2="29200" y2="14400" stroke="#8496ab" stroke-width="320" stroke-linecap="butt"/><line x1="29200" y1="14400" x2="34000" y2="14400" stroke="#8496ab" stroke-width="320" stroke-linecap="butt"/><line x1="13200" y1="1200" x2="13200" y2="9600" stroke="#8496ab" stroke-width="320" stroke-linecap="butt"/><line x1="22800" y1="16400" x2="28400" y2="16400" stroke="#8496ab" stroke-width="320" stroke-linecap="butt"/><line x1="28400" y1="16400" x2="34000" y2="16400" stroke="#8496ab" stroke-width="320" stroke-linecap="butt"/><line x1="16400" y1="14400" x2="16400" y2="22000" stroke="#8496ab" stroke-width="320" stroke-linecap="butt"/><line x1="16400" y1="18400" x2="22800" y2="18400" stroke="#8496ab" stroke-width="120" stroke-linecap="butt"/><line x1="400" y1="18800" x2="2000" y2="18800" stroke="#8496ab" stroke-width="320" stroke-linecap="butt"/><line x1="32400" y1="18800" x2="34000" y2="18800" stroke="#8496ab" stroke-width="320" stroke-linecap="butt"/><line x1="2000" y1="22000" x2="8800" y2="22000" stroke="#8496ab" stroke-width="320" stroke-linecap="butt"/><line x1="8800" y1="22000" x2="16400" y2="22000" stroke="#8496ab" stroke-width="320" stroke-linecap="butt"/><line x1="16400" y1="22000" x2="22800" y2="22000" stroke="#8496ab" stroke-width="320" stroke-linecap="butt"/><line x1="22800" y1="22000" x2="28400" y2="22000" stroke="#8496ab" stroke-width="320" stroke-linecap="butt"/><line x1="28400" y1="22000" x2="32400" y2="22000" stroke="#8496ab" stroke-width="320" stroke-linecap="butt"/><line x1="22800" y1="1200" x2="22800" y2="9600" stroke="#8496ab" stroke-width="320" stroke-linecap="butt"/><line x1="22800" y1="14400" x2="22800" y2="16400" stroke="#8496ab" stroke-width="320" stroke-linecap="butt"/><line x1="22800" y1="16400" x2="22800" y2="22000" stroke="#8496ab" stroke-width="320" stroke-linecap="butt"/><line x1="28400" y1="16400" x2="28400" y2="22000" stroke="#8496ab" stroke-width="320" stroke-linecap="butt"/><line x1="29200" y1="400" x2="29200" y2="1200" stroke="#8496ab" stroke-width="320" stroke-linecap="butt"/><line x1="29200" y1="9600" x2="29200" y2="14400" stroke="#8496ab" stroke-width="320" stroke-linecap="butt"/><line x1="32400" y1="18800" x2="32400" y2="22000" stroke="#8496ab" stroke-width="320" stroke-linecap="butt"/><line x1="33200" y1="400" x2="33200" y2="1200" stroke="#8496ab" stroke-width="320" stroke-linecap="butt"/><line x1="34000" y1="1200" x2="34000" y2="9600" stroke="#8496ab" stroke-width="320" stroke-linecap="butt"/><line x1="34000" y1="9600" x2="34000" y2="14400" stroke="#8496ab" stroke-width="320" stroke-linecap="butt"/><line x1="34000" y1="14400" x2="34000" y2="16400" stroke="#8496ab" stroke-width="320" stroke-linecap="butt"/><line x1="34000" y1="16400" x2="34000" y2="18800" stroke="#8496ab" stroke-width="320" stroke-linecap="butt"/></g>
<g id="oas-openings"><g><rect x="1800" y="1200" width="2800" height="320" fill="#ffffff"/><line x1="1800" y1="1200" x2="4600" y2="1200" stroke="#7dd3fc" stroke-width="57.599999999999994"/></g><g><rect x="6200" y="1200" width="2800" height="320" fill="#ffffff"/><line x1="6200" y1="1200" x2="9000" y2="1200" stroke="#7dd3fc" stroke-width="57.599999999999994"/></g><g><rect x="400" y="4200" width="320" height="2400" fill="#ffffff"/><line x1="400" y1="4200" x2="400" y2="6600" stroke="#7dd3fc" stroke-width="57.599999999999994"/></g><g><rect x="14600" y="9600" width="2000" height="320" fill="#ffffff"/><path d="M 16600,9600 L 16595.717846477208,9469.193741539713 L 16582.88972274762,9338.947615559897 L 16561.57056080646,9209.819355967744 L 16531.851652578138,9082.361909794958 L 16493.86025899021,8957.121069393677 L 16447.759065022572,8834.63313526982 L 16393.745483065377,8715.422619561998 L 16332.050807568878,8600 L 16262.93922460509,8488.859533960796 L 16186.70668058247,8382.47714198256 L 16103.679614957955,8281.308369799863 L 16014.213562373096,8185.786437626905 L 15918.691630200137,8096.320385042045 L 15817.52285801744,8013.293319417529 L 15711.140466039205,7937.06077539491 L 15600,7867.949192431122 L 15484.577380438002,7806.254516934623 L 15365.36686473018,7752.240934977426 L 15242.878930606323,7706.139741009789 L 15117.638090205042,7668.148347421863 L 14990.180644032256,7638.429439193539 L 14861.052384440103,7617.110277252379 L 14730.806258460287,7604.282153522793 L 14600,7600" stroke="#94a3b8" stroke-width="6" fill="none" stroke-linecap="round"/><line x1="14600" y1="9600" x2="14600" y2="7600" stroke="#94a3b8" stroke-width="6" fill="none" stroke-linecap="round"/></g><g><rect x="14400" y="1200" width="2400" height="320" fill="#ffffff"/><line x1="14400" y1="1200" x2="16800" y2="1200" stroke="#7dd3fc" stroke-width="57.599999999999994"/></g><g><rect x="18000" y="1200" width="2400" height="320" fill="#ffffff"/><line x1="18000" y1="1200" x2="20400" y2="1200" stroke="#7dd3fc" stroke-width="57.599999999999994"/></g><g><rect x="27000" y="9600" width="2000" height="320" fill="#ffffff"/><path d="M 29000,9600 L 28995.717846477208,9469.193741539713 L 28982.88972274762,9338.947615559897 L 28961.57056080646,9209.819355967744 L 28931.851652578138,9082.361909794958 L 28893.86025899021,8957.121069393677 L 28847.759065022572,8834.63313526982 L 28793.745483065377,8715.422619561998 L 28732.050807568878,8600 L 28662.939224605092,8488.859533960796 L 28586.70668058247,8382.47714198256 L 28503.679614957953,8281.308369799863 L 28414.213562373094,8185.786437626905 L 28318.691630200137,8096.320385042045 L 28217.52285801744,8013.293319417529 L 28111.140466039204,7937.06077539491 L 28000,7867.949192431122 L 27884.577380438004,7806.254516934623 L 27765.36686473018,7752.240934977426 L 27642.878930606323,7706.139741009789 L 27517.63809020504,7668.148347421863 L 27390.180644032258,7638.429439193539 L 27261.052384440103,7617.110277252379 L 27130.806258460285,7604.282153522793 L 27000,7600" stroke="#94a3b8" stroke-width="6" fill="none" stroke-linecap="round"/><line x1="27000" y1="9600" x2="27000" y2="7600" stroke="#94a3b8" stroke-width="6" fill="none" stroke-linecap="round"/></g><g><rect x="24000" y="1200" width="2400" height="320" fill="#ffffff"/><line x1="24000" y1="1200" x2="26400" y2="1200" stroke="#7dd3fc" stroke-width="57.599999999999994"/></g><g><rect x="29400" y="400" width="2000" height="320" fill="#ffffff"/><line x1="29400" y1="400" x2="31400" y2="400" stroke="#7dd3fc" stroke-width="57.599999999999994"/></g><g><rect x="34000" y="4200" width="320" height="2400" fill="#ffffff"/><line x1="34000" y1="4200" x2="34000" y2="6600" stroke="#7dd3fc" stroke-width="57.599999999999994"/></g><g><rect x="5200" y="11400" width="320" height="1200" fill="#ffffff"/><path d="M 5200,12600 L 5278.483755076171,12597.430707886324 L 5356.6314306640625,12589.733833648572 L 5434.108386419354,12576.942336483877 L 5510.582854123025,12559.110991546882 L 5585.727358363794,12536.316155394126 L 5659.220118838108,12508.655439013544 L 5730.746428262802,12476.247289839226 L 5800,12439.230484541327 L 5866.684279623523,12397.763534763055 L 5930.513714810465,12352.024008349483 L 5991.214978120082,12302.207768974773 L 6048.528137423857,12248.528137423857 L 6102.207768974773,12191.214978120082 L 6152.024008349482,12130.513714810464 L 6197.763534763054,12066.684279623523 L 6239.230484541326,12000 L 6276.247289839226,11930.7464282628 L 6308.655439013544,11859.220118838108 L 6336.316155394126,11785.727358363794 L 6359.110991546882,11710.582854123026 L 6376.942336483877,11634.108386419353 L 6389.733833648573,11556.631430664062 L 6397.430707886324,11478.483755076171 L 6400,11400" stroke="#94a3b8" stroke-width="6" fill="none" stroke-linecap="round"/><line x1="5200" y1="11400" x2="4000" y2="11400" stroke="#94a3b8" stroke-width="6" fill="none" stroke-linecap="round"/></g><g><rect x="400" y="10800" width="320" height="2400" fill="#ffffff"/><line x1="400" y1="10800" x2="400" y2="13200" stroke="#7dd3fc" stroke-width="57.599999999999994"/></g><g><rect x="5200" y="9600" width="8000" height="320" fill="#ffffff"/><rect x="5200" y="9600" width="8000" height="320" fill="none" stroke="#94a3b8" stroke-width="4" stroke-dasharray="14 10"/></g><g><rect x="29200" y="11400" width="320" height="1200" fill="#ffffff"/><path d="M 29200,12600 L 29278.483755076173,12597.430707886324 L 29356.631430664063,12589.733833648572 L 29434.108386419353,12576.942336483877 L 29510.582854123026,12559.110991546882 L 29585.727358363794,12536.316155394126 L 29659.220118838108,12508.655439013544 L 29730.746428262803,12476.247289839226 L 29800,12439.230484541327 L 29866.68427962352,12397.763534763055 L 29930.513714810466,12352.024008349483 L 29991.214978120082,12302.207768974773 L 30048.52813742386,12248.528137423857 L 30102.20776897477,12191.214978120082 L 30152.024008349483,12130.513714810464 L 30197.763534763053,12066.684279623523 L 30239.230484541327,12000 L 30276.247289839226,11930.7464282628 L 30308.655439013542,11859.220118838108 L 30336.316155394128,11785.727358363794 L 30359.11099154688,11710.582854123026 L 30376.942336483877,11634.108386419353 L 30389.733833648574,11556.631430664062 L 30397.430707886324,11478.483755076171 L 30400,11400" stroke="#94a3b8" stroke-width="6" fill="none" stroke-linecap="round"/><line x1="29200" y1="11400" x2="30400" y2="11400" stroke="#94a3b8" stroke-width="6" fill="none" stroke-linecap="round"/></g><g><rect x="34000" y="10800" width="320" height="2400" fill="#ffffff"/><line x1="34000" y1="10800" x2="34000" y2="13200" stroke="#7dd3fc" stroke-width="57.599999999999994"/></g><g><rect x="5800" y="14400" width="2000" height="320" fill="#ffffff"/><path d="M 7800,14400 L 7795.717846477207,14269.193741539713 L 7782.889722747621,14138.947615559897 L 7761.570560806461,14009.819355967744 L 7731.851652578137,13882.361909794958 L 7693.860258990211,13757.121069393677 L 7647.759065022574,13634.63313526982 L 7593.745483065377,13515.422619561998 L 7532.050807568878,13400 L 7462.93922460509,13288.859533960796 L 7386.706680582471,13182.47714198256 L 7303.679614957955,13081.308369799863 L 7214.213562373096,12985.786437626904 L 7118.691630200137,12896.320385042045 L 7017.522858017442,12813.29331941753 L 6911.1404660392045,12737.06077539491 L 6800,12667.949192431122 L 6684.577380438002,12606.254516934623 L 6565.36686473018,12552.240934977426 L 6442.878930606324,12506.139741009789 L 6317.638090205041,12468.148347421864 L 6190.180644032257,12438.42943919354 L 6061.052384440103,12417.11027725238 L 5930.806258460287,12404.282153522792 L 5800,12400" stroke="#94a3b8" stroke-width="6" fill="none" stroke-linecap="round"/><line x1="5800" y1="14400" x2="5800" y2="12400" stroke="#94a3b8" stroke-width="6" fill="none" stroke-linecap="round"/></g><g><rect x="2000" y="22000" width="3200" height="320" fill="#ffffff"/><line x1="2000" y1="22000" x2="5200" y2="22000" stroke="#7dd3fc" stroke-width="57.599999999999994"/></g><g><rect x="2000" y="19800" width="320" height="1200" fill="#ffffff"/><rect x="2000" y="19800" width="320" height="1200" fill="none" stroke="#94a3b8" stroke-width="4" stroke-dasharray="14 10"/></g><g><rect x="11400" y="14400" width="2000" height="320" fill="#ffffff"/><path d="M 13400,14400 L 13395.717846477208,14269.193741539713 L 13382.88972274762,14138.947615559897 L 13361.57056080646,14009.819355967744 L 13331.851652578136,13882.361909794958 L 13293.860258990211,13757.121069393677 L 13247.759065022574,13634.63313526982 L 13193.745483065377,13515.422619561998 L 13132.050807568878,13400 L 13062.93922460509,13288.859533960796 L 12986.70668058247,13182.47714198256 L 12903.679614957955,13081.308369799863 L 12814.213562373096,12985.786437626904 L 12718.691630200137,12896.320385042045 L 12617.52285801744,12813.29331941753 L 12511.140466039205,12737.06077539491 L 12400,12667.949192431122 L 12284.577380438002,12606.254516934623 L 12165.36686473018,12552.240934977426 L 12042.878930606323,12506.139741009789 L 11917.638090205042,12468.148347421864 L 11790.180644032256,12438.42943919354 L 11661.052384440103,12417.11027725238 L 11530.806258460287,12404.282153522792 L 11400,12400" stroke="#94a3b8" stroke-width="6" fill="none" stroke-linecap="round"/><line x1="11400" y1="14400" x2="11400" y2="16400" stroke="#94a3b8" stroke-width="6" fill="none" stroke-linecap="round"/></g><g><rect x="10600" y="22000" width="4000" height="320" fill="#ffffff"/><path d="M 12600,22000 L 12595.717846477208,21869.193741539715 L 12582.88972274762,21738.947615559897 L 12561.57056080646,21609.819355967742 L 12531.851652578136,21482.36190979496 L 12493.860258990211,21357.121069393677 L 12447.759065022574,21234.63313526982 L 12393.745483065377,21115.422619561996 L 12332.050807568878,21000 L 12262.93922460509,20888.859533960796 L 12186.70668058247,20782.47714198256 L 12103.679614957955,20681.308369799863 L 12014.213562373096,20585.786437626906 L 11918.691630200137,20496.320385042047 L 11817.52285801744,20413.29331941753 L 11711.140466039205,20337.060775394908 L 11600,20267.949192431122 L 11484.577380438002,20206.254516934623 L 11365.36686473018,20152.240934977428 L 11242.878930606323,20106.13974100979 L 11117.638090205042,20068.148347421862 L 10990.180644032256,20038.42943919354 L 10861.052384440103,20017.11027725238 L 10730.806258460287,20004.282153522792 L 10600,20000" stroke="#94a3b8" stroke-width="6" fill="none" stroke-linecap="round"/><path d="M 12600,22000 L 12604.282153522792,22130.806258460285 L 12617.11027725238,22261.052384440103 L 12638.42943919354,22390.180644032258 L 12668.148347421864,22517.63809020504 L 12706.139741009789,22642.878930606323 L 12752.240934977426,22765.36686473018 L 12806.254516934623,22884.577380438004 L 12867.949192431122,23000 L 12937.06077539491,23111.140466039204 L 13013.29331941753,23217.52285801744 L 13096.320385042045,23318.691630200137 L 13185.786437626904,23414.213562373094 L 13281.308369799863,23503.679614957953 L 13382.47714198256,23586.70668058247 L 13488.859533960796,23662.939224605092 L 13600,23732.050807568878 L 13715.422619561998,23793.745483065377 L 13834.63313526982,23847.759065022572 L 13957.121069393677,23893.86025899021 L 14082.36190979496,23931.851652578138 L 14209.819355967744,23961.57056080646 L 14338.947615559897,23982.88972274762 L 14469.193741539713,23995.717846477208 L 14600,24000" stroke="#94a3b8" stroke-width="6" fill="none" stroke-linecap="round"/><line x1="10600" y1="22000" x2="10600" y2="20000" stroke="#94a3b8" stroke-width="6" fill="none" stroke-linecap="round"/><line x1="14600" y1="22000" x2="14600" y2="20000" stroke="#94a3b8" stroke-width="6" fill="none" stroke-linecap="round"/></g><g><rect x="18400" y="14400" width="2000" height="320" fill="#ffffff"/><path d="M 20400,14400 L 20395.717846477208,14269.193741539713 L 20382.88972274762,14138.947615559897 L 20361.57056080646,14009.819355967744 L 20331.851652578138,13882.361909794958 L 20293.86025899021,13757.121069393677 L 20247.759065022572,13634.63313526982 L 20193.745483065377,13515.422619561998 L 20132.050807568878,13400 L 20062.939224605092,13288.859533960796 L 19986.70668058247,13182.47714198256 L 19903.679614957953,13081.308369799863 L 19814.213562373094,12985.786437626904 L 19718.691630200137,12896.320385042045 L 19617.52285801744,12813.29331941753 L 19511.140466039204,12737.06077539491 L 19400,12667.949192431122 L 19284.577380438004,12606.254516934623 L 19165.36686473018,12552.240934977426 L 19042.878930606323,12506.139741009789 L 18917.63809020504,12468.148347421864 L 18790.180644032258,12438.42943919354 L 18661.052384440103,12417.11027725238 L 18530.806258460285,12404.282153522792 L 18400,12400" stroke="#94a3b8" stroke-width="6" fill="none" stroke-linecap="round"/><line x1="18400" y1="14400" x2="18400" y2="12400" stroke="#94a3b8" stroke-width="6" fill="none" stroke-linecap="round"/></g><g><rect x="18800" y="18400" width="1600" height="120" fill="#ffffff"/><rect x="18800" y="18400" width="1600" height="120" fill="none" stroke="#94a3b8" stroke-width="4" stroke-dasharray="14 10"/></g><g><rect x="24400" y="16400" width="1600" height="320" fill="#ffffff"/><path d="M 26000,16400 L 25996.574277181764,16295.354993231771 L 25986.3117781981,16191.158092447917 L 25969.25644864517,16087.855484774194 L 25945.481322062507,15985.889527835967 L 25915.08820719217,15885.696855514941 L 25878.20725201806,15787.706508215857 L 25834.9963864523,15692.338095649598 L 25785.6406460551,15600 L 25730.35137968407,15511.087627168636 L 25669.365344465976,15425.981713586047 L 25602.943691966364,15345.04669583989 L 25531.370849898478,15268.629150101524 L 25454.95330416011,15197.056308033636 L 25374.018286413953,15130.634655534024 L 25288.912372831364,15069.648620315927 L 25200,15014.359353944898 L 25107.661904350403,14965.003613547698 L 25012.293491784145,14921.792747981941 L 24914.30314448506,14884.91179280783 L 24814.110472164033,14854.51867793749 L 24712.144515225806,14830.743551354832 L 24608.841907552083,14813.688221801904 L 24504.64500676823,14803.425722818234 L 24400,14800" stroke="#94a3b8" stroke-width="6" fill="none" stroke-linecap="round"/><line x1="24400" y1="16400" x2="24400" y2="18000" stroke="#94a3b8" stroke-width="6" fill="none" stroke-linecap="round"/></g><g><rect x="23200" y="22000" width="2400" height="320" fill="#ffffff"/><line x1="23200" y1="22000" x2="25600" y2="22000" stroke="#7dd3fc" stroke-width="57.599999999999994"/></g><g><rect x="30400" y="16400" width="1600" height="320" fill="#ffffff"/><path d="M 32000,16400 L 31996.574277181764,16295.354993231771 L 31986.3117781981,16191.158092447917 L 31969.25644864517,16087.855484774194 L 31945.481322062507,15985.889527835967 L 31915.08820719217,15885.696855514941 L 31878.20725201806,15787.706508215857 L 31834.9963864523,15692.338095649598 L 31785.6406460551,15600 L 31730.35137968407,15511.087627168636 L 31669.365344465976,15425.981713586047 L 31602.943691966364,15345.04669583989 L 31531.370849898478,15268.629150101524 L 31454.95330416011,15197.056308033636 L 31374.018286413953,15130.634655534024 L 31288.912372831364,15069.648620315927 L 31200,15014.359353944898 L 31107.661904350403,14965.003613547698 L 31012.293491784145,14921.792747981941 L 30914.30314448506,14884.91179280783 L 30814.110472164033,14854.51867793749 L 30712.144515225806,14830.743551354832 L 30608.841907552083,14813.688221801904 L 30504.64500676823,14803.425722818234 L 30400,14800" stroke="#94a3b8" stroke-width="6" fill="none" stroke-linecap="round"/><line x1="30400" y1="16400" x2="30400" y2="18000" stroke="#94a3b8" stroke-width="6" fill="none" stroke-linecap="round"/></g><g><rect x="28600" y="22000" width="2000" height="320" fill="#ffffff"/><line x1="28600" y1="22000" x2="30600" y2="22000" stroke="#7dd3fc" stroke-width="57.599999999999994"/></g><g><rect x="26800" y="14400" width="1600" height="320" fill="#ffffff"/><path d="M 28400,14400 L 28396.574277181764,14295.354993231771 L 28386.3117781981,14191.158092447917 L 28369.25644864517,14087.855484774194 L 28345.481322062507,13985.889527835967 L 28315.08820719217,13885.696855514941 L 28278.20725201806,13787.706508215857 L 28234.9963864523,13692.338095649598 L 28185.6406460551,13600 L 28130.35137968407,13511.087627168636 L 28069.365344465976,13425.981713586047 L 28002.943691966364,13345.04669583989 L 27931.370849898478,13268.629150101524 L 27854.95330416011,13197.056308033636 L 27774.018286413953,13130.634655534024 L 27688.912372831364,13069.648620315927 L 27600,13014.359353944898 L 27507.661904350403,12965.003613547698 L 27412.293491784145,12921.792747981941 L 27314.30314448506,12884.91179280783 L 27214.110472164033,12854.51867793749 L 27112.144515225806,12830.743551354832 L 27008.841907552083,12813.688221801904 L 26904.64500676823,12803.425722818234 L 26800,12800" stroke="#94a3b8" stroke-width="6" fill="none" stroke-linecap="round"/><line x1="26800" y1="14400" x2="26800" y2="12800" stroke="#94a3b8" stroke-width="6" fill="none" stroke-linecap="round"/></g></g>
<g id="oas-furniture"><polygon points="2000,2800 4400,2800 4400,1800 2000,1800" fill="#cbd5e1" stroke="#94a3b8" stroke-width="2" filter="url(#filter-furn-shadow)"/><polygon points="6400,2800 8800,2800 8800,1800 6400,1800" fill="#cbd5e1" stroke="#94a3b8" stroke-width="2" filter="url(#filter-furn-shadow)"/><polygon points="13600,4000 22400,4000 22400,1200 21600,1200 21600,3200 13600,3200" fill="#cbd5e1" stroke="#94a3b8" stroke-width="2" filter="url(#filter-furn-shadow)"/><circle cx="13800" cy="6000" r="400" fill="#f5f5f4" stroke="#d6d3d1" filter="url(#filter-furn-shadow)"/><circle cx="13800" cy="8000" r="400" fill="#f5f5f4" stroke="#d6d3d1" filter="url(#filter-furn-shadow)"/><circle cx="20400" cy="6000" r="360" fill="#f5f5f4" stroke="#d6d3d1" filter="url(#filter-furn-shadow)"/><circle cx="20400" cy="8000" r="360" fill="#f5f5f4" stroke="#d6d3d1" filter="url(#filter-furn-shadow)"/><polygon points="30400,7600 30800,8000 32000,8000 32000,6800 30400,6800" fill="#cbd5e1" stroke="#94a3b8" stroke-width="2" filter="url(#filter-furn-shadow)"/><polygon points="32400,9600 33600,9600 33600,8400 32400,8400" fill="#cbd5e1" stroke="#94a3b8" stroke-width="2" filter="url(#filter-furn-shadow)"/><circle cx="31200" cy="7400" r="320" fill="#f5f5f4" stroke="#d6d3d1" filter="url(#filter-furn-shadow)"/><circle cx="33000" cy="9000" r="320" fill="#f5f5f4" stroke="#d6d3d1" filter="url(#filter-furn-shadow)"/><circle cx="30600" cy="6800" r="450" fill="#fafaf9" stroke="#e4e4e7" filter="url(#filter-furn-shadow)"/><circle cx="32000" cy="9000" r="450" fill="#fafaf9" stroke="#e4e4e7" filter="url(#filter-furn-shadow)"/><polygon points="9200,16000 9200,20000 9600,20000 9600,16000 9200,16000" fill="#cbd5e1" stroke="#94a3b8" stroke-width="2" filter="url(#filter-furn-shadow)"/><polygon points="9600,16000 9360,15640 8960,15640 9200,16000" fill="#cbd5e1" stroke="#94a3b8" stroke-width="2" filter="url(#filter-furn-shadow)"/><g filter="url(#filter-furn-shadow)"><rect x="1400" y="10000" width="2800" height="2800" fill="#cbd5e1" stroke="#94a3b8" stroke-width="2"/><circle cx="2800" cy="11400" r="466.6666666666667" fill="#f8fafc"/></g><g filter="url(#filter-furn-shadow)"><rect x="1400" y="11800" width="2800" height="2800" fill="#e2e8f0" stroke="#cbd5e1" stroke-width="2"/><line x1="2100" y1="14133.333333333334" x2="2800" y2="12266.666666666666" stroke="#ffffff" stroke-width="6"/><line x1="2800" y1="14133.333333333334" x2="3500" y2="12266.666666666666" stroke="#ffffff" stroke-width="6"/><line x1="3500" y1="14133.333333333334" x2="4200" y2="12266.666666666666" stroke="#ffffff" stroke-width="6"/></g><g filter="url(#filter-furn-shadow)"><rect x="30200" y="10000" width="2800" height="2800" fill="#cbd5e1" stroke="#94a3b8" stroke-width="2"/><circle cx="31600" cy="11400" r="466.6666666666667" fill="#f8fafc"/></g><g filter="url(#filter-furn-shadow)"><rect x="30200" y="11800" width="2800" height="2800" fill="#e2e8f0" stroke="#cbd5e1" stroke-width="2"/><line x1="30900" y1="14133.333333333334" x2="31600" y2="12266.666666666666" stroke="#ffffff" stroke-width="6"/><line x1="31600" y1="14133.333333333334" x2="32300" y2="12266.666666666666" stroke="#ffffff" stroke-width="6"/><line x1="32300" y1="14133.333333333334" x2="33000" y2="12266.666666666666" stroke="#ffffff" stroke-width="6"/></g><g filter="url(#filter-furn-shadow)"><circle cx="6400" cy="12000" r="250" fill="#d8b4fe" stroke="#a855f7"/><circle cx="6400" cy="12000" r="83.33333333333333" fill="#f3e8ff"/><line x1="6400" y1="12000" x2="7100" y2="12000" stroke="#a855f7" stroke-width="4"/></g><g filter="url(#filter-furn-shadow)"><circle cx="28000" cy="12000" r="250" fill="#d8b4fe" stroke="#a855f7"/><circle cx="28000" cy="12000" r="83.33333333333333" fill="#f3e8ff"/><line x1="28000" y1="12000" x2="27300" y2="12000" stroke="#a855f7" stroke-width="4"/></g><g filter="url(#filter-furn-shadow)"><rect x="1600" y="3400" width="1600" height="1200" fill="#a7f3d0" stroke="#059669" stroke-width="2"/><rect x="2000" y="3700" width="800" height="200" rx="6" fill="#ecfdf5"/></g><g filter="url(#filter-furn-shadow)"><rect x="1600" y="6200" width="1600" height="1200" fill="#a7f3d0" stroke="#059669" stroke-width="2"/><rect x="2000" y="6500" width="800" height="200" rx="6" fill="#ecfdf5"/></g><g filter="url(#filter-furn-shadow)"><circle cx="11600" cy="2800" r="250" fill="#d8b4fe" stroke="#a855f7"/><circle cx="11600" cy="2800" r="83.33333333333333" fill="#f3e8ff"/><line x1="11600" y1="2800" x2="10923.851921597652" y2="2981.1733315717643" stroke="#a855f7" stroke-width="4"/></g><g filter="url(#filter-furn-shadow)"><circle cx="28400" cy="2800" r="250" fill="#d8b4fe" stroke="#a855f7"/><circle cx="28400" cy="2800" r="83.33333333333333" fill="#f3e8ff"/><line x1="28400" y1="2800" x2="28400" y2="3500" stroke="#a855f7" stroke-width="4"/></g></g>
<g id="oas-labels"><text x="6800" y="5400" text-anchor="middle" dominant-baseline="middle" font-family="system-ui, sans-serif" font-size="62.21511070471546" font-weight="600" fill="#334155">Главный холл</text><text x="6800" y="5446.661333028536" text-anchor="middle" dominant-baseline="middle" font-family="system-ui, sans-serif" font-size="32.35185756645204" fill="#94a3b8">26.9 м²</text><text x="18000" y="5400" text-anchor="middle" dominant-baseline="middle" font-family="system-ui, sans-serif" font-size="53.87986636954476" font-weight="600" fill="#334155">Кафе</text><text x="18000" y="5440.409899777159" text-anchor="middle" dominant-baseline="middle" font-family="system-ui, sans-serif" font-size="28.017530512163276" fill="#94a3b8">20.2 м²</text><text x="28492.105263157893" y="5248.684210526317" text-anchor="middle" dominant-baseline="middle" font-family="system-ui, sans-serif" font-size="59.178374428502174" font-weight="600" fill="#334155">Кассовый зал</text><text x="28492.105263157893" y="5293.067991347693" text-anchor="middle" dominant-baseline="middle" font-family="system-ui, sans-serif" font-size="30.772754702821132" fill="#94a3b8">24.3 м²</text><text x="17200" y="12000" text-anchor="middle" dominant-baseline="middle" font-family="system-ui, sans-serif" font-size="64.39875775199394" font-weight="600" fill="#334155">Коридор</text><text x="17200" y="12048.299068313996" text-anchor="middle" dominant-baseline="middle" font-family="system-ui, sans-serif" font-size="33.48735403103685" fill="#94a3b8">28.8 м²</text><text x="4896.457765667575" y="18008.174386920982" text-anchor="middle" dominant-baseline="middle" font-family="system-ui, sans-serif" font-size="45.97738574560324" font-weight="600" fill="#334155">Переговорная</text><text x="4896.457765667575" y="18042.657426230184" text-anchor="middle" dominant-baseline="middle" font-family="system-ui, sans-serif" font-size="23.90824058771369" fill="#94a3b8">14.7 м²</text><text x="12600" y="18200" text-anchor="middle" dominant-baseline="middle" font-family="system-ui, sans-serif" font-size="45.599999999999994" font-weight="600" fill="#334155">Вестибюль</text><text x="12600" y="18234.2" text-anchor="middle" dominant-baseline="middle" font-family="system-ui, sans-serif" font-size="23.711999999999996" fill="#94a3b8">14.4 м²</text><text x="19600" y="18200" text-anchor="middle" dominant-baseline="middle" font-family="system-ui, sans-serif" font-size="41.84542985799047" font-weight="600" fill="#334155">Серверная</text><text x="19600" y="18231.38407239349" text-anchor="middle" dominant-baseline="middle" font-family="system-ui, sans-serif" font-size="21.759623526155043" fill="#94a3b8">12.2 м²</text><text x="25600" y="19200" text-anchor="middle" dominant-baseline="middle" font-family="system-ui, sans-serif" font-size="36" font-weight="600" fill="#334155">М</text><text x="25600" y="19227" text-anchor="middle" dominant-baseline="middle" font-family="system-ui, sans-serif" font-size="18.72" fill="#94a3b8">7.8 м²</text><text x="30809.756097560974" y="18965.853658536587" text-anchor="middle" dominant-baseline="middle" font-family="system-ui, sans-serif" font-size="36" font-weight="600" fill="#334155">Ж</text><text x="30809.756097560974" y="18992.853658536587" text-anchor="middle" dominant-baseline="middle" font-family="system-ui, sans-serif" font-size="18.72" fill="#94a3b8">6.6 м²</text></g>
<g id="oas-annotations"><line x1="29700" y1="21700" x2="33700" y2="21700" stroke="#64748b" stroke-width="6"/><line x1="29700" y1="21660" x2="29700" y2="21740" stroke="#64748b" stroke-width="6"/><line x1="33700" y1="21660" x2="33700" y2="21740" stroke="#64748b" stroke-width="6"/><text x="31700" y="21790" text-anchor="middle" font-size="48" fill="#64748b">2 м</text></g>
<text x="400" y="320" font-size="56" font-weight="600" fill="#1e293b">meridian-f1 — 1 этаж — Холл (0 мм)</text>
</svg>
